<svg version="1.1" id="Layer_1" xmlns="http://www.w3.org/2000/svg" xmlns:xlink="http://www.w3.org/1999/xlink" x="0px" y="0px"
	 width="100%" viewBox="0 0 1080 1080" enable-background="new 0 0 1080 1080" xml:space="preserve">
<path fill="#D4FF88" opacity="1.000000" stroke="none" 
	d="
M580.000000,1081.000000 
	C386.688904,1081.000000 193.877838,1081.000000 1.033378,1081.000000 
	C1.033378,721.063782 1.033378,361.127594 1.033378,1.095691 
	C360.894623,1.095691 720.789307,1.095691 1080.842041,1.095691 
	C1080.842041,360.999939 1080.842041,720.999939 1080.842041,1081.000000 
	C914.127136,1081.000000 747.313538,1081.000000 580.000000,1081.000000 
M217.713181,283.310760 
	C214.012680,288.696167 213.852249,294.803925 213.878677,301.034302 
	C214.550156,459.322845 215.189072,617.611572 215.777847,775.900452 
	C215.791336,779.525391 215.442795,783.205261 214.779541,786.769531 
	C212.273071,800.238892 220.044815,812.944397 233.454544,815.856750 
	C238.893600,817.038025 244.670364,816.748230 250.299820,816.954651 
	C279.274414,818.016907 308.281128,818.536682 337.011902,813.967773 
	C387.328552,805.966309 427.759125,781.315063 456.771667,739.365356 
	C475.142548,712.802612 483.916412,682.246460 489.642059,650.742432 
	C497.486420,607.580505 489.114197,568.078979 463.270386,532.471008 
	C441.051025,501.856842 412.811584,480.133179 374.725922,473.327759 
	C346.716400,468.322845 318.437561,467.747467 290.076965,468.669983 
	C281.317169,468.954895 272.540314,468.714264 263.336456,468.714264 
	C263.336456,467.128998 263.342590,464.827728 263.335571,462.526520 
	C263.167938,407.707397 263.011261,352.888214 262.820496,298.069153 
	C262.778534,286.012543 256.552765,276.754089 246.302841,273.266632 
	C235.833740,269.704620 225.706696,273.080933 217.713181,283.310760 
M628.957153,769.417114 
	C628.957275,771.415955 628.807495,773.428406 628.987427,775.410889 
	C629.410034,780.067078 631.974304,783.059509 636.496094,784.241272 
	C643.263428,786.009949 648.853577,781.126953 648.888184,773.258850 
	C649.028198,741.445374 649.096558,709.631592 649.190125,677.817932 
	C649.195862,675.859497 649.190857,673.901123 649.190857,671.280090 
	C655.385498,671.280090 661.092834,671.852051 666.604980,671.062073 
	C669.828003,670.600098 673.783997,668.702942 675.584290,666.159119 
	C680.006653,659.910278 675.069458,651.789185 666.957214,651.393433 
	C661.204285,651.112793 655.426636,651.339172 649.434753,651.339172 
	C649.434753,646.572388 649.459229,642.430054 649.429321,638.288086 
	C649.375793,630.869263 645.699951,626.576416 639.461914,626.597412 
	C633.397461,626.617859 629.763794,630.690674 629.586670,637.864868 
	C629.476929,642.310608 629.566284,646.761230 629.566284,651.545288 
	C615.411987,651.545288 602.035339,651.545288 588.738037,651.545288 
	C588.564209,650.937012 588.393738,650.618042 588.393738,650.299072 
	C588.394104,645.636108 588.452087,640.972961 588.427063,636.310242 
	C588.387146,628.880371 584.718872,624.588318 578.484131,624.597046 
	C572.415527,624.605530 568.751404,628.679382 568.590088,635.842773 
	C568.471619,641.103882 568.566895,646.369873 568.566895,651.142822 
	C567.689209,651.706421 567.550171,651.873291 567.408752,651.875244 
	C562.914368,651.937805 558.418701,651.939392 553.925354,652.044189 
	C547.456787,652.195129 543.113281,656.183899 543.050110,661.940125 
	C542.984680,667.905762 547.434204,671.937866 554.218079,671.997070 
	C558.820374,672.037231 563.423340,672.004761 568.228210,672.004761 
	C568.228210,675.567078 568.236450,678.550964 568.226929,681.534851 
	C568.131165,711.515869 568.067932,741.497131 567.900452,771.477783 
	C567.872070,776.564575 569.800598,780.247437 574.593201,782.007812 
	C581.583984,784.575745 587.848999,779.489807 587.888489,771.196167 
	C588.011414,745.378967 588.053955,719.561401 588.118286,693.743958 
	C588.136047,686.624084 588.120911,679.504089 588.120911,672.006958 
	C602.043213,672.006958 615.426392,672.006958 628.957825,672.006958 
	C628.957825,704.235657 628.957825,736.338013 628.957153,769.417114 
M766.808655,696.649780 
	C763.005737,690.016418 759.224243,683.370667 755.392517,676.753967 
	C752.763916,672.215027 749.019592,669.919189 743.530701,670.049255 
	C733.380127,670.289856 723.207458,670.420837 713.067810,670.009277 
	C706.555908,669.745056 702.402100,672.482178 699.145020,677.724426 
	C692.656494,688.167786 685.850586,698.417236 679.528931,708.958557 
	C678.113525,711.318787 677.135437,714.771423 677.692444,717.345398 
	C680.605774,730.807678 684.022278,744.163086 687.383301,757.525574 
	C688.817322,763.226746 693.499817,766.936279 699.353760,766.950989 
	C717.833740,766.997437 736.314453,766.973145 754.794067,766.849243 
	C761.301331,766.805603 765.363586,762.730225 765.339905,756.738892 
	C765.316345,750.783386 761.178101,746.921448 754.614014,746.901672 
	C745.634521,746.874634 736.654724,746.961243 727.675049,746.979858 
	C720.225098,746.995361 712.775146,746.983093 705.371094,746.983093 
	C703.620911,739.437744 701.999023,732.445435 700.292847,725.089783 
	C701.964294,725.089783 702.789551,725.091125 703.614807,725.089661 
	C723.760620,725.054382 743.906555,725.049988 764.052185,724.969788 
	C773.681824,724.931458 778.295593,716.946167 773.598572,708.544373 
	C771.490051,704.772705 769.293945,701.049988 766.808655,696.649780 
M791.702393,773.841980 
	C792.312195,780.604248 795.610535,784.172180 801.349548,784.277649 
	C807.675293,784.393921 811.531860,780.163025 811.580139,772.841980 
	C811.709839,753.202637 812.516235,733.528015 811.592041,713.936340 
	C811.037781,702.188782 813.437622,693.362732 824.344177,687.808167 
	C826.522766,686.698730 828.141296,684.523193 830.276672,683.285645 
	C832.172119,682.187317 834.390747,681.200073 836.529480,681.048157 
	C844.328613,680.494202 852.160645,680.421387 859.967224,679.949829 
	C865.406006,679.621338 869.242432,675.389832 869.293396,670.113953 
	C869.342285,665.053223 865.620422,659.889221 860.671021,660.251770 
	C844.236633,661.455444 826.236267,656.507690 812.924316,671.314941 
	C812.861267,671.385132 812.609741,671.285889 812.419678,671.262512 
	C812.293884,671.017334 812.061279,670.765686 812.043091,670.499390 
	C811.483398,662.303528 808.187927,658.512512 801.725098,658.660217 
	C795.341492,658.806091 792.048218,663.034058 792.022034,671.088440 
	C791.911560,705.044617 791.796448,739.000793 791.702393,773.841980 
M520.195129,755.499390 
	C520.273865,762.155762 520.130615,768.824341 520.496521,775.464905 
	C520.831116,781.537781 525.313599,785.351501 531.037842,785.042664 
	C536.484497,784.748779 540.174072,780.694153 540.266968,774.706055 
	C540.336731,770.213989 540.215759,765.719116 540.195862,761.225403 
	C540.063232,731.266907 539.904480,701.308411 539.838623,671.349792 
	C539.828857,666.901978 538.846924,663.075806 534.817810,660.652588 
	C527.809937,656.437988 519.856201,661.392151 519.869812,670.117432 
	C519.913574,698.244873 520.077759,726.372070 520.195129,755.499390 
M519.574524,611.830322 
	C515.054688,616.234436 513.854126,623.579834 516.661804,629.651245 
	C518.861633,634.408142 523.397339,636.202820 530.706177,635.567688 
	C535.434814,635.156738 539.551636,633.382263 540.588440,628.688049 
	C541.823303,623.097412 542.671875,617.034424 537.716492,612.390442 
	C536.564453,611.310791 534.828430,610.186829 533.382080,610.213684 
	C528.981262,610.295532 524.590759,610.929932 519.574524,611.830322 
z"/>
<path fill="#010101" opacity="1.000000" stroke="none" 
	d="
M217.895798,282.993652 
	C225.706696,273.080933 235.833740,269.704620 246.302841,273.266632 
	C256.552765,276.754089 262.778534,286.012543 262.820496,298.069153 
	C263.011261,352.888214 263.167938,407.707397 263.335571,462.526520 
	C263.342590,464.827728 263.336456,467.128998 263.336456,468.714264 
	C272.540314,468.714264 281.317169,468.954895 290.076965,468.669983 
	C318.437561,467.747467 346.716400,468.322845 374.725922,473.327759 
	C412.811584,480.133179 441.051025,501.856842 463.270386,532.471008 
	C489.114197,568.078979 497.486420,607.580505 489.642059,650.742432 
	C483.916412,682.246460 475.142548,712.802612 456.771667,739.365356 
	C427.759125,781.315063 387.328552,805.966309 337.011902,813.967773 
	C308.281128,818.536682 279.274414,818.016907 250.299820,816.954651 
	C244.670364,816.748230 238.893600,817.038025 233.454544,815.856750 
	C220.044815,812.944397 212.273071,800.238892 214.779541,786.769531 
	C215.442795,783.205261 215.791336,779.525391 215.777847,775.900452 
	C215.189072,617.611572 214.550156,459.322845 213.878677,301.034302 
	C213.852249,294.803925 214.012680,288.696167 217.895798,282.993652 
M338.242432,518.066467 
	C313.469177,516.602356 288.734985,517.077942 264.438354,519.057678 
	C264.438354,602.316528 264.438354,685.069519 264.438354,768.086914 
	C266.741913,768.326111 268.373108,768.702209 269.984589,768.631287 
	C289.268158,767.781921 308.730835,768.229187 327.792145,765.683044 
	C366.996002,760.446533 398.122681,741.043152 419.225159,707.225464 
	C430.705475,688.827759 436.303467,668.023987 440.662415,646.911194 
	C446.908417,616.658020 443.148102,588.345215 424.796356,562.753296 
	C410.964508,543.464539 394.409485,527.668884 370.301422,522.533875 
	C360.079224,520.356506 349.564636,519.551819 338.242432,518.066467 
z"/>
<path fill="#020302" opacity="1.000000" stroke="none" 
	d="
M628.957520,768.928711 
	C628.957825,736.338013 628.957825,704.235657 628.957825,672.006958 
	C615.426392,672.006958 602.043213,672.006958 588.120911,672.006958 
	C588.120911,679.504089 588.136047,686.624084 588.118286,693.743958 
	C588.053955,719.561401 588.011414,745.378967 587.888489,771.196167 
	C587.848999,779.489807 581.583984,784.575745 574.593201,782.007812 
	C569.800598,780.247437 567.872070,776.564575 567.900452,771.477783 
	C568.067932,741.497131 568.131165,711.515869 568.226929,681.534851 
	C568.236450,678.550964 568.228210,675.567078 568.228210,672.004761 
	C563.423340,672.004761 558.820374,672.037231 554.218079,671.997070 
	C547.434204,671.937866 542.984680,667.905762 543.050110,661.940125 
	C543.113281,656.183899 547.456787,652.195129 553.925354,652.044189 
	C558.418701,651.939392 562.914368,651.937805 567.408752,651.875244 
	C567.550171,651.873291 567.689209,651.706421 568.566895,651.142822 
	C568.566895,646.369873 568.471619,641.103882 568.590088,635.842773 
	C568.751404,628.679382 572.415527,624.605530 578.484131,624.597046 
	C584.718872,624.588318 588.387146,628.880371 588.427063,636.310242 
	C588.452087,640.972961 588.394104,645.636108 588.393738,650.299072 
	C588.393738,650.618042 588.564209,650.937012 588.738037,651.545288 
	C602.035339,651.545288 615.411987,651.545288 629.566284,651.545288 
	C629.566284,646.761230 629.476929,642.310608 629.586670,637.864868 
	C629.763794,630.690674 633.397461,626.617859 639.461914,626.597412 
	C645.699951,626.576416 649.375793,630.869263 649.429321,638.288086 
	C649.459229,642.430054 649.434753,646.572388 649.434753,651.339172 
	C655.426636,651.339172 661.204285,651.112793 666.957214,651.393433 
	C675.069458,651.789185 680.006653,659.910278 675.584290,666.159119 
	C673.783997,668.702942 669.828003,670.600098 666.604980,671.062073 
	C661.092834,671.852051 655.385498,671.280090 649.190857,671.280090 
	C649.190857,673.901123 649.195862,675.859497 649.190125,677.817932 
	C649.096558,709.631592 649.028198,741.445374 648.888184,773.258850 
	C648.853577,781.126953 643.263428,786.009949 636.496094,784.241272 
	C631.974304,783.059509 629.410034,780.067078 628.987427,775.410889 
	C628.807495,773.428406 628.957275,771.415955 628.957520,768.928711 
z"/>
<path fill="#020301" opacity="1.000000" stroke="none" 
	d="
M766.973083,696.977417 
	C769.293945,701.049988 771.490051,704.772705 773.598572,708.544373 
	C778.295593,716.946167 773.681824,724.931458 764.052185,724.969788 
	C743.906555,725.049988 723.760620,725.054382 703.614807,725.089661 
	C702.789551,725.091125 701.964294,725.089783 700.292847,725.089783 
	C701.999023,732.445435 703.620911,739.437744 705.371094,746.983093 
	C712.775146,746.983093 720.225098,746.995361 727.675049,746.979858 
	C736.654724,746.961243 745.634521,746.874634 754.614014,746.901672 
	C761.178101,746.921448 765.316345,750.783386 765.339905,756.738892 
	C765.363586,762.730225 761.301331,766.805603 754.794067,766.849243 
	C736.314453,766.973145 717.833740,766.997437 699.353760,766.950989 
	C693.499817,766.936279 688.817322,763.226746 687.383301,757.525574 
	C684.022278,744.163086 680.605774,730.807678 677.692444,717.345398 
	C677.135437,714.771423 678.113525,711.318787 679.528931,708.958557 
	C685.850586,698.417236 692.656494,688.167786 699.145020,677.724426 
	C702.402100,672.482178 706.555908,669.745056 713.067810,670.009277 
	C723.207458,670.420837 733.380127,670.289856 743.530701,670.049255 
	C749.019592,669.919189 752.763916,672.215027 755.392517,676.753967 
	C759.224243,683.370667 763.005737,690.016418 766.973083,696.977417 
M746.860718,701.927612 
	C743.479370,691.818176 736.647522,687.853638 726.115173,689.925537 
	C723.388489,690.461914 720.475342,689.992065 717.657715,690.155212 
	C716.588806,690.216980 715.058167,690.427246 714.573975,691.138733 
	C711.588318,695.526184 708.841370,700.076233 705.729187,705.027161 
	C719.503906,705.027161 732.300537,705.046204 745.096924,704.999329 
	C746.457092,704.994324 749.150574,705.778015 746.860718,701.927612 
z"/>
<path fill="#030302" opacity="1.000000" stroke="none" 
	d="
M791.692688,773.399475 
	C791.796448,739.000793 791.911560,705.044617 792.022034,671.088440 
	C792.048218,663.034058 795.341492,658.806091 801.725098,658.660217 
	C808.187927,658.512512 811.483398,662.303528 812.043091,670.499390 
	C812.061279,670.765686 812.293884,671.017334 812.419678,671.262512 
	C812.609741,671.285889 812.861267,671.385132 812.924316,671.314941 
	C826.236267,656.507690 844.236633,661.455444 860.671021,660.251770 
	C865.620422,659.889221 869.342285,665.053223 869.293396,670.113953 
	C869.242432,675.389832 865.406006,679.621338 859.967224,679.949829 
	C852.160645,680.421387 844.328613,680.494202 836.529480,681.048157 
	C834.390747,681.200073 832.172119,682.187317 830.276672,683.285645 
	C828.141296,684.523193 826.522766,686.698730 824.344177,687.808167 
	C813.437622,693.362732 811.037781,702.188782 811.592041,713.936340 
	C812.516235,733.528015 811.709839,753.202637 811.580139,772.841980 
	C811.531860,780.163025 807.675293,784.393921 801.349548,784.277649 
	C795.610535,784.172180 792.312195,780.604248 791.692688,773.399475 
z"/>
<path fill="#020302" opacity="1.000000" stroke="none" 
	d="
M520.195312,754.999390 
	C520.077759,726.372070 519.913574,698.244873 519.869812,670.117432 
	C519.856201,661.392151 527.809937,656.437988 534.817810,660.652588 
	C538.846924,663.075806 539.828857,666.901978 539.838623,671.349792 
	C539.904480,701.308411 540.063232,731.266907 540.195862,761.225403 
	C540.215759,765.719116 540.336731,770.213989 540.266968,774.706055 
	C540.174072,780.694153 536.484497,784.748779 531.037842,785.042664 
	C525.313599,785.351501 520.831116,781.537781 520.496521,775.464905 
	C520.130615,768.824341 520.273865,762.155762 520.195312,754.999390 
z"/>
<path fill="#030302" opacity="1.000000" stroke="none" 
	d="
M519.885376,611.589844 
	C524.590759,610.929932 528.981262,610.295532 533.382080,610.213684 
	C534.828430,610.186829 536.564453,611.310791 537.716492,612.390442 
	C542.671875,617.034424 541.823303,623.097412 540.588440,628.688049 
	C539.551636,633.382263 535.434814,635.156738 530.706177,635.567688 
	C523.397339,636.202820 518.861633,634.408142 516.661804,629.651245 
	C513.854126,623.579834 515.054688,616.234436 519.885376,611.589844 
z"/>
<path fill="#FE8897" opacity="1.000000" stroke="none" 
	d="
M338.712708,518.094849 
	C349.564636,519.551819 360.079224,520.356506 370.301422,522.533875 
	C394.409485,527.668884 410.964508,543.464539 424.796356,562.753296 
	C443.148102,588.345215 446.908417,616.658020 440.662415,646.911194 
	C436.303467,668.023987 430.705475,688.827759 419.225159,707.225464 
	C398.122681,741.043152 366.996002,760.446533 327.792145,765.683044 
	C308.730835,768.229187 289.268158,767.781921 269.984589,768.631287 
	C268.373108,768.702209 266.741913,768.326111 264.438354,768.086914 
	C264.438354,685.069519 264.438354,602.316528 264.438354,519.057678 
	C288.734985,517.077942 313.469177,516.602356 338.712708,518.094849 
z"/>
<path fill="#D2FD87" opacity="1.000000" stroke="none" 
	d="
M747.026733,702.286926 
	C749.150574,705.778015 746.457092,704.994324 745.096924,704.999329 
	C732.300537,705.046204 719.503906,705.027161 705.729187,705.027161 
	C708.841370,700.076233 711.588318,695.526184 714.573975,691.138733 
	C715.058167,690.427246 716.588806,690.216980 717.657715,690.155212 
	C720.475342,689.992065 723.388489,690.461914 726.115173,689.925537 
	C736.647522,687.853638 743.479370,691.818176 747.026733,702.286926 
z"/>
</svg>